<svg viewBox="0 0 363 341.02" xmlns="http://www.w3.org/2000/svg"><path d="m125 65h148v12h-148z" fill="#426572"/><path d="m75 11v284.5h-14.5a12 12 0 0 1 -12-12v-260.5a12 12 0 0 1 12-12z" fill="#e1d2d5"/><path d="m320.5 296.5h-260a18 18 0 0 1 -18-18v-260.5a18 18 0 0 1 18-18h260a18 18 0 0 1 18 18v260.5a18 18 0 0 1 -18 18zm-260-284.5a6 6 0 0 0 -6 6v260.5a6 6 0 0 0 6 6h260a6 6 0 0 0 6-6v-260.5a6 6 0 0 0 -6-6z" fill="#426572"/><path d="m282.63 101.57h-44.43a74.37 74.37 0 0 1 -52.59-21.78 74.37 74.37 0 0 0 -52.61-21.79h-52.63a74.37 74.37 0 0 0 -74.37 74.37v128.28a74.37 74.37 0 0 0 74.37 74.35h202.26a74.37 74.37 0 0 0 74.37-74.35v-84.71a74.37 74.37 0 0 0 -74.37-74.37z" fill="#ffd947"/><path d="m347.7 293.66a74.35 74.35 0 0 1 -65.07 38.34h-202.26a74.37 74.37 0 0 1 -74.37-74.37v-128.28a74.37 74.37 0 0 1 44.3-68 74 74 0 0 0 -9.3 36v128.28a74.37 74.37 0 0 0 74.37 74.37h202.26a73.94 73.94 0 0 0 30.07-6.34z" fill="#ffa546"/><path d="m282.63 341h-202.26a80.46 80.46 0 0 1 -80.37-80.35v-128.28a80.46 80.46 0 0 1 80.37-80.37h52.63a79.84 79.84 0 0 1 56.83 23.54 67.93 67.93 0 0 0 48.35 20h44.43a80.46 80.46 0 0 1 80.39 80.4v84.71a80.46 80.46 0 0 1 -80.37 80.35zm-202.26-277a68.45 68.45 0 0 0 -68.37 68.37v128.28a68.45 68.45 0 0 0 68.37 68.35h202.26a68.45 68.45 0 0 0 68.37-68.35v-84.71a68.45 68.45 0 0 0 -68.37-68.37h-44.43a79.84 79.84 0 0 1 -56.83-23.57 67.93 67.93 0 0 0 -48.37-20z" fill="#426572"/><path d="m306.53 126.14c.56.25 1.14.46 1.68.74l1.63.84 1.62.84.8.42.77.48 3 1.93c1 .67 1.93 1.46 2.88 2.18a46.59 46.59 0 0 1 9 10.14 55.54 55.54 0 0 1 5.54 10.66c.37.86.68 1.72 1 2.58s.59 1.68.83 2.51c.46 1.66.94 3.24 1.24 4.79a57.46 57.46 0 0 1 1.48 14.75 20.43 20.43 0 0 1 -.47 4c-.21.91-.45 1.38-.72 1.39s-.54-.46-.83-1.33-.56-2.16-1-3.79a122 122 0 0 0 -3.7-13.5c-.44-1.4-1-2.8-1.6-4.29-.29-.74-.64-1.47-1-2.22s-.66-1.52-1.06-2.27a56.76 56.76 0 0 0 -5.51-9.18 43.3 43.3 0 0 0 -7.93-8.34c-.81-.57-1.56-1.19-2.42-1.75l-2.6-1.72-.67-.41-.71-.36-1.42-.72-1.42-.73c-.48-.24-1-.42-1.49-.64-7.93-3.51-16.34-5.06-24.05-6.06s-14.88-1.22-20.9-1.51c-12.05-.48-19.62-1.06-19.65-2.15s7.39-2.35 19.58-3.26a156.38 156.38 0 0 1 21.65-.1c8.19.67 17.41 2.09 26.45 6.08z" fill="#fff"/></svg>